<svg xmlns="http://www.w3.org/2000/svg" viewBox="0 0 512 512" role="img" aria-labelledby="title desc">
  <title id="title">OmicVerse-OmicBench sticker</title>
  <desc id="desc">OmicVerse repository hex sticker for OmicVerse-OmicBench.</desc>
  <defs>
    <linearGradient id="bg" x1="112" y1="90" x2="398" y2="430" gradientUnits="userSpaceOnUse">
      <stop offset="0" stop-color="#050706"/>
      <stop offset=".58" stop-color="#020403"/>
      <stop offset="1" stop-color="#000000"/>
    </linearGradient>
  </defs>
  <polygon points="256,34 450,146 450,368 256,480 62,368 62,146" fill="#000000" opacity=".34"/>
  <polygon points="256,22 458,139 458,373 256,490 54,373 54,139" fill="url(#bg)" stroke="#0B0F0A" stroke-width="19" stroke-linejoin="round"/>
  <polygon points="256,22 458,139 458,373 256,490 54,373 54,139" fill="none" stroke="#E8FFE0" stroke-width="12" stroke-linejoin="round"/>
  <g opacity=".22" stroke="#37C96B" stroke-width="2.2">
    <path d="M112 166h288M100 222h312M100 278h312M112 334h288"/>
    <path d="M152 126v236M204 104v274M256 96v286M308 104v274M360 126v236"/>
  </g>
  <g id="motif">
    <circle cx="256" cy="244" r="106" fill="#FFFFFF" opacity=".07" stroke="#FFFFFF" stroke-width="5"/>
    <path d="M256 138v212M150 244h212M182 170l148 148M330 170L182 318" stroke="#37C96B" stroke-width="4" opacity=".72"/>
    <path d="M256 158l76 54-18 98-112 22-54-92z" fill="#34C759" opacity=".22" stroke="#34C759" stroke-width="8" stroke-linejoin="round"/>
    <circle cx="256" cy="158" r="12" fill="#FFD43B"/><circle cx="332" cy="212" r="12" fill="#00A6D6"/><circle cx="314" cy="310" r="12" fill="#FF6B5F"/>
    <circle cx="202" cy="332" r="12" fill="#34C759"/><circle cx="148" cy="240" r="12" fill="#FFFFFF"/>
  </g>
  <path id="label" d="M306.42,373.29 Q304.29,374.52 304.03,376.76 Q303.76,379.01 305.41,381.86 Q307.05,384.70 309.13,385.60 Q311.21,386.50 313.34,385.27 Q315.48,384.03 315.74,381.78 Q316.00,379.53 314.36,376.69 Q312.72,373.84 310.64,372.95 Q308.56,372.05 306.42,373.29 Z M304.47,369.91 Q308.82,367.40 312.73,368.47 Q316.63,369.53 319.17,373.92 Q321.69,378.30 320.66,382.21 Q319.64,386.13 315.28,388.64 Q310.94,391.15 307.03,390.08 Q303.12,389.02 300.60,384.64 Q298.06,380.25 299.10,376.34 Q300.13,372.42 304.47,369.91 Z M333.72,362.47 Q333.81,360.74 334.56,359.43 Q335.31,358.12 336.67,357.34 Q339.00,355.99 341.05,356.73 Q343.10,357.46 344.69,360.20 L349.45,368.45 L345.10,370.96 L341.02,363.90 Q340.94,363.73 340.85,363.56 Q340.76,363.39 340.58,363.08 Q339.75,361.64 338.95,361.24 Q338.15,360.83 337.21,361.38 Q335.98,362.09 335.89,363.49 Q335.81,364.89 336.89,366.83 L340.73,373.48 L336.38,375.99 L332.30,368.93 Q331.00,366.68 330.24,366.26 Q329.48,365.84 328.49,366.41 Q327.25,367.13 327.16,368.54 Q327.07,369.95 328.17,371.85 L332.01,378.51 L327.66,381.02 L319.85,367.48 L324.20,364.97 L325.34,366.95 Q325.48,365.35 326.18,364.17 Q326.88,362.99 328.12,362.27 Q329.52,361.46 330.99,361.52 Q332.46,361.57 333.72,362.47 Z M345.67,352.58 L349.99,350.08 L357.81,363.62 L353.49,366.11 L345.67,352.58 Z M342.63,347.30 L346.95,344.81 L348.99,348.34 L344.66,350.83 L342.63,347.30 Z M365.34,341.78 L367.38,345.31 Q366.15,345.22 365.09,345.44 Q364.03,345.67 363.08,346.22 Q361.27,347.26 360.87,348.90 Q360.47,350.54 361.56,352.44 Q362.66,354.34 364.28,354.82 Q365.90,355.29 367.71,354.24 Q368.73,353.66 369.47,352.83 Q370.20,352.00 370.64,350.96 L372.68,354.50 Q371.88,355.46 370.94,356.25 Q370.01,357.04 368.96,357.65 Q365.29,359.77 362.14,359.08 Q358.99,358.39 357.05,355.04 Q355.12,351.69 356.10,348.63 Q357.09,345.55 360.75,343.44 Q361.81,342.82 362.95,342.41 Q364.09,342.00 365.34,341.78 Z M377.68,337.40 Q378.78,336.76 379.07,335.95 Q379.36,335.14 378.81,334.20 Q378.28,333.27 377.43,333.11 Q376.58,332.94 375.48,333.58 L372.90,335.06 L375.11,338.88 L377.68,337.40 Z M382.40,345.20 Q383.80,344.39 384.16,343.39 Q384.53,342.39 383.84,341.19 Q383.16,340.02 382.12,339.84 Q381.08,339.65 379.67,340.47 L376.94,342.05 L379.67,346.78 L382.40,345.20 Z M382.98,336.21 Q384.73,335.78 386.22,336.48 Q387.72,337.18 388.71,338.88 Q390.21,341.49 389.19,343.79 Q388.17,346.09 384.56,348.17 L376.84,352.63 L366.42,334.58 L373.41,330.55 Q377.17,328.38 379.51,328.54 Q381.85,328.70 383.30,331.21 Q384.06,332.52 383.97,333.80 Q383.89,335.08 382.98,336.21 Z M405.10,327.24 L405.81,328.47 L395.70,334.31 Q396.73,335.75 398.11,335.96 Q399.50,336.18 401.19,335.21 Q402.55,334.42 403.75,333.18 Q404.95,331.95 405.99,330.26 L407.92,333.59 Q406.71,335.06 405.35,336.24 Q403.99,337.43 402.45,338.31 Q398.78,340.44 395.66,339.74 Q392.55,339.05 390.60,335.68 Q388.69,332.37 389.59,329.32 Q390.50,326.26 394.00,324.24 Q397.20,322.39 400.22,323.21 Q403.24,324.02 405.10,327.24 Z M399.82,328.37 Q399.11,327.14 397.95,326.80 Q396.80,326.46 395.64,327.13 Q394.38,327.85 394.00,329.01 Q393.63,330.17 394.20,331.62 L399.82,328.37 Z M421.16,316.05 L425.92,324.30 L421.57,326.81 L420.79,325.47 L417.92,320.50 Q416.91,318.75 416.45,318.13 Q415.99,317.51 415.61,317.30 Q415.11,317.03 414.54,317.04 Q413.97,317.06 413.41,317.38 Q412.06,318.16 411.89,319.66 Q411.72,321.15 412.79,323.00 L416.63,329.66 L412.31,332.15 L404.49,318.61 L408.82,316.12 L409.96,318.10 Q410.26,316.35 411.03,315.15 Q411.81,313.96 413.14,313.19 Q415.48,311.84 417.53,312.57 Q419.57,313.31 421.16,316.05 Z M433.30,302.54 L435.34,306.08 Q434.11,305.98 433.05,306.21 Q431.99,306.43 431.04,306.98 Q429.23,308.03 428.83,309.66 Q428.43,311.30 429.52,313.20 Q430.62,315.10 432.24,315.58 Q433.86,316.05 435.67,315.01 Q436.69,314.42 437.43,313.59 Q438.17,312.76 438.60,311.72 L440.64,315.26 Q439.84,316.23 438.90,317.01 Q437.97,317.81 436.92,318.41 Q433.25,320.53 430.10,319.84 Q426.95,319.16 425.01,315.81 Q423.08,312.46 424.06,309.39 Q425.05,306.31 428.71,304.20 Q429.77,303.58 430.91,303.17 Q432.05,302.76 433.30,302.54 Z M453.46,297.40 L458.22,305.65 L453.87,308.16 L453.09,306.82 L450.24,301.87 Q449.21,300.10 448.75,299.48 Q448.29,298.86 447.91,298.66 Q447.41,298.38 446.84,298.39 Q446.27,298.41 445.71,298.73 Q444.36,299.51 444.19,301.01 Q444.02,302.50 445.09,304.35 L448.93,311.01 L444.61,313.50 L433.75,294.69 L438.07,292.20 L442.26,299.45 Q442.56,297.70 443.33,296.51 Q444.11,295.31 445.44,294.54 Q447.78,293.19 449.83,293.92 Q451.87,294.66 453.46,297.40 Z" fill="#FFFFFF"/>
</svg>
